<svg xmlns="http://www.w3.org/2000/svg" xmlns:xlink="http://www.w3.org/1999/xlink" width="1920" zoomAndPan="magnify" viewBox="0 0 1440 809.999993" height="1080" preserveAspectRatio="xMidYMid meet" version="1.2"><defs><clipPath id="6491576145"><path d="M 424.367188 95.339844 L 1043.691406 95.339844 L 1043.691406 714.660156 L 424.367188 714.660156 Z M 424.367188 95.339844 "/></clipPath><clipPath id="f4f04c2824"><path d="M 734.027344 95.339844 C 563.007812 95.339844 424.367188 233.980469 424.367188 405 C 424.367188 576.019531 563.007812 714.660156 734.027344 714.660156 C 905.050781 714.660156 1043.691406 576.019531 1043.691406 405 C 1043.691406 233.980469 905.050781 95.339844 734.027344 95.339844 Z M 734.027344 95.339844 "/></clipPath><clipPath id="9a3733d10c"><path d="M 435.25 95.339844 L 1043.691406 95.339844 L 1043.691406 715 L 435.25 715 Z M 435.25 95.339844 "/></clipPath><clipPath id="8ef0ebba3d"><path d="M 739.46875 95.339844 C 571.453125 95.339844 435.25 233.980469 435.25 405 C 435.25 576.019531 571.453125 714.660156 739.46875 714.660156 C 907.488281 714.660156 1043.691406 576.019531 1043.691406 405 C 1043.691406 233.980469 907.488281 95.339844 739.46875 95.339844 Z M 739.46875 95.339844 "/></clipPath><filter x="0%" y="0%" width="100%" filterUnits="objectBoundingBox" id="016c5ff4e9" height="100%"><feColorMatrix values="0 0 0 0 1 0 0 0 0 1 0 0 0 0 1 0 0 0 1 0" type="matrix" in="SourceGraphic"/></filter><clipPath id="b0329d311e"><path d="M 0.246094 0.113281 L 547 0.113281 L 547 513.886719 L 0.246094 513.886719 Z M 0.246094 0.113281 "/></clipPath><clipPath id="dc99865680"><path d="M 273.46875 0.113281 C 122.570312 0.113281 0.246094 115.125 0.246094 257 C 0.246094 398.875 122.570312 513.886719 273.46875 513.886719 C 424.363281 513.886719 546.691406 398.875 546.691406 257 C 546.691406 115.125 424.363281 0.113281 273.46875 0.113281 Z M 273.46875 0.113281 "/></clipPath><clipPath id="eccebcd5de"><rect x="0" width="549" y="0" height="514"/></clipPath><clipPath id="b0da176bf5"><path d="M 806.597656 255.339844 L 837.402344 255.339844 L 837.402344 286.144531 L 806.597656 286.144531 Z M 806.597656 255.339844 "/></clipPath><clipPath id="80d5915eeb"><path d="M 822 255.339844 C 813.496094 255.339844 806.597656 262.238281 806.597656 270.742188 C 806.597656 279.25 813.496094 286.144531 822 286.144531 C 830.507812 286.144531 837.402344 279.25 837.402344 270.742188 C 837.402344 262.238281 830.507812 255.339844 822 255.339844 Z M 822 255.339844 "/></clipPath><clipPath id="1efd541e54"><path d="M 817.167969 258.730469 L 843.628906 258.730469 L 843.628906 285.1875 L 817.167969 285.1875 Z M 817.167969 258.730469 "/></clipPath><clipPath id="58636198f4"><path d="M 830.398438 258.730469 C 823.09375 258.730469 817.167969 264.652344 817.167969 271.960938 C 817.167969 279.265625 823.09375 285.1875 830.398438 285.1875 C 837.707031 285.1875 843.628906 279.265625 843.628906 271.960938 C 843.628906 264.652344 837.707031 258.730469 830.398438 258.730469 Z M 830.398438 258.730469 "/></clipPath><clipPath id="d2e0b7fb51"><path d="M 796 279 L 843 279 L 843 296 L 796 296 Z M 796 279 "/></clipPath><clipPath id="d760c3c6a6"><path d="M 795.136719 291.210938 L 841.457031 277.097656 L 843.632812 284.230469 L 797.308594 298.339844 Z M 795.136719 291.210938 "/></clipPath><clipPath id="18fa843e87"><path d="M 818.296875 284.152344 C 805.507812 288.050781 795.625 292.804688 796.222656 294.773438 C 796.824219 296.742188 807.679688 295.179688 820.46875 291.285156 C 833.257812 287.386719 843.140625 282.632812 842.542969 280.664062 C 841.941406 278.695312 831.085938 280.257812 818.296875 284.152344 Z M 818.296875 284.152344 "/></clipPath><clipPath id="400b4e2e7b"><path d="M 796.683594 355.230469 L 811.4375 355.230469 L 811.4375 476.824219 L 796.683594 476.824219 Z M 796.683594 355.230469 "/></clipPath><clipPath id="e93edf1410"><path d="M 804.058594 355.230469 C 799.988281 355.230469 796.683594 382.449219 796.683594 416.019531 C 796.683594 449.59375 799.988281 476.808594 804.058594 476.808594 C 808.132812 476.808594 811.4375 449.59375 811.4375 416.019531 C 811.4375 382.449219 808.132812 355.230469 804.058594 355.230469 Z M 804.058594 355.230469 "/></clipPath><clipPath id="8b71058feb"><path d="M 797.3125 350.960938 L 812.066406 350.960938 L 812.066406 472.554688 L 797.3125 472.554688 Z M 797.3125 350.960938 "/></clipPath><clipPath id="dd2c579368"><path d="M 804.6875 350.960938 C 800.613281 350.960938 797.3125 378.175781 797.3125 411.75 C 797.3125 445.324219 800.613281 472.539062 804.6875 472.539062 C 808.761719 472.539062 812.066406 445.324219 812.066406 411.75 C 812.066406 378.175781 808.761719 350.960938 804.6875 350.960938 Z M 804.6875 350.960938 "/></clipPath><clipPath id="b6149c6fb7"><path d="M 798.210938 347.21875 L 812.964844 347.21875 L 812.964844 468.8125 L 798.210938 468.8125 Z M 798.210938 347.21875 "/></clipPath><clipPath id="1106fc0095"><path d="M 805.589844 347.21875 C 801.515625 347.21875 798.210938 374.433594 798.210938 408.007812 C 798.210938 441.582031 801.515625 468.796875 805.589844 468.796875 C 809.664062 468.796875 812.964844 441.582031 812.964844 408.007812 C 812.964844 374.433594 809.664062 347.21875 805.589844 347.21875 Z M 805.589844 347.21875 "/></clipPath></defs><g id="556cc1c484"><g clip-rule="nonzero" clip-path="url(#6491576145)"><g clip-rule="nonzero" clip-path="url(#f4f04c2824)"><path style=" stroke:none;fill-rule:nonzero;fill:#1765cc;fill-opacity:1;" d="M 424.367188 95.339844 L 1043.691406 95.339844 L 1043.691406 714.660156 L 424.367188 714.660156 Z M 424.367188 95.339844 "/></g></g><g clip-rule="nonzero" clip-path="url(#9a3733d10c)"><g clip-rule="nonzero" clip-path="url(#8ef0ebba3d)"><path style=" stroke:none;fill-rule:nonzero;fill:#2372dc;fill-opacity:1;" d="M 435.25 95.339844 L 1043.691406 95.339844 L 1043.691406 715.664062 L 435.25 715.664062 Z M 435.25 95.339844 "/></g></g><g mask="url(#1c9aa9d2e9)" transform="matrix(1,0,0,1,497,148)"><g clip-path="url(#eccebcd5de)"><g clip-rule="nonzero" clip-path="url(#b0329d311e)"><g clip-rule="nonzero" clip-path="url(#dc99865680)"><path style=" stroke:none;fill-rule:nonzero;fill:#ffffff;fill-opacity:1;" d="M 0.246094 0.113281 L 546.132812 0.113281 L 546.132812 513.886719 L 0.246094 513.886719 Z M 0.246094 0.113281 "/></g></g></g><mask id="1c9aa9d2e9"><g filter="url(#016c5ff4e9)"><rect x="0" width="1440" y="0" height="809.999993" style="fill:#000000;fill-opacity:0.15;stroke:none;"/></g></mask></g><g style="fill:#ffffff;fill-opacity:1;"><g transform="translate(507.907916, 495.250315)"><path style="stroke:none" d="M 162.734375 -34.890625 C 162.867188 -33.890625 163.082031 -32.96875 163.375 -32.125 C 163.226562 -26.875 162.054688 -22.472656 159.859375 -18.921875 C 157.660156 -15.378906 154.578125 -13.039062 150.609375 -11.90625 C 146.640625 -10.632812 142.8125 -10.773438 139.125 -12.328125 C 135.4375 -13.890625 132.457031 -16.515625 130.1875 -20.203125 C 127.769531 -24.316406 125.710938 -29.425781 124.015625 -35.53125 C 123.453125 -37.789062 122.457031 -39.84375 121.03125 -41.6875 C 119.613281 -43.53125 117.0625 -44.523438 113.375 -44.671875 C 109.257812 -44.816406 105.144531 -44.957031 101.03125 -45.09375 C 96.925781 -45.238281 92.816406 -45.378906 88.703125 -45.515625 C 83.316406 -45.804688 77.859375 -46.054688 72.328125 -46.265625 C 66.796875 -46.472656 61.265625 -46.648438 55.734375 -46.796875 C 54.316406 -46.796875 52.753906 -46.191406 51.046875 -44.984375 C 49.347656 -43.785156 48.070312 -42.546875 47.21875 -41.265625 C 46.082031 -39.285156 44.984375 -37.265625 43.921875 -35.203125 C 42.859375 -33.148438 41.832031 -31.128906 40.84375 -29.140625 C 39.851562 -27.160156 38.820312 -25.101562 37.75 -22.96875 C 36.6875 -20.84375 35.519531 -18.789062 34.25 -16.8125 C 29.28125 -8.15625 23.253906 -5.390625 16.171875 -8.515625 C 13.328125 -9.640625 11.019531 -11.90625 9.25 -15.3125 C 7.476562 -18.71875 7.300781 -22.691406 8.71875 -27.234375 C 13.6875 -42.691406 20.066406 -60.203125 27.859375 -79.765625 C 32.828125 -92.242188 39.066406 -106.285156 46.578125 -121.890625 C 48.710938 -126.285156 51.085938 -130.925781 53.703125 -135.8125 C 56.328125 -140.707031 59.203125 -145.492188 62.328125 -150.171875 C 65.585938 -154.859375 70.335938 -158.972656 76.578125 -162.515625 C 81.253906 -165.347656 85.722656 -166.765625 89.984375 -166.765625 C 97.492188 -166.765625 103.734375 -162.582031 108.703125 -154.21875 C 118.484375 -137.488281 128.050781 -120.082031 137.40625 -102 C 146.769531 -83.914062 154.359375 -64.878906 160.171875 -44.890625 C 160.742188 -43.046875 161.238281 -41.269531 161.65625 -39.5625 C 162.082031 -37.863281 162.441406 -36.304688 162.734375 -34.890625 Z M 68.28125 -82.75 L 108.0625 -82.75 L 85.296875 -129.328125 Z M 68.28125 -82.75 "/></g></g><g style="fill:#ffffff;fill-opacity:1;"><g transform="translate(679.142208, 495.250315)"><path style="stroke:none" d="M 102.109375 -31.265625 C 103.953125 -26.585938 103.171875 -21.769531 99.765625 -16.8125 C 99.484375 -16.382812 99.164062 -15.957031 98.8125 -15.53125 C 98.457031 -15.101562 98.132812 -14.75 97.84375 -14.46875 C 75.582031 1.695312 54.3125 6.304688 34.03125 -0.640625 C 28.21875 -2.617188 23.535156 -5.347656 19.984375 -8.828125 C 16.441406 -12.304688 13.785156 -16.097656 12.015625 -20.203125 C 10.242188 -24.316406 9.109375 -28.359375 8.609375 -32.328125 C 8.117188 -36.304688 7.875 -39.851562 7.875 -42.96875 C 8.300781 -56.15625 9.046875 -69.445312 10.109375 -82.84375 C 11.171875 -96.25 12.335938 -109.40625 13.609375 -122.3125 L 14.25 -129.546875 C 14.675781 -134.367188 15.421875 -139.191406 16.484375 -144.015625 C 17.546875 -148.835938 18.859375 -154.007812 20.421875 -159.53125 C 22.546875 -167.757812 26.867188 -171.875 33.390625 -171.875 C 33.816406 -171.875 34.171875 -171.875 34.453125 -171.875 C 38.003906 -171.59375 40.878906 -170.175781 43.078125 -167.625 C 45.273438 -165.070312 46.515625 -161.738281 46.796875 -157.625 C 47.367188 -150.675781 47.757812 -143.726562 47.96875 -136.78125 C 48.175781 -129.832031 48.425781 -123.238281 48.71875 -117 C 48.71875 -114.445312 48.75 -112.035156 48.8125 -109.765625 C 48.882812 -107.492188 48.992188 -105.296875 49.140625 -103.171875 C 49.140625 -100.046875 49.140625 -96.992188 49.140625 -94.015625 C 49.140625 -91.035156 49.140625 -88.128906 49.140625 -85.296875 C 49.140625 -78.921875 49.140625 -72.71875 49.140625 -66.6875 C 49.140625 -60.65625 49.140625 -54.734375 49.140625 -48.921875 C 49.273438 -46.515625 49.484375 -44.53125 49.765625 -42.96875 C 50.054688 -41.40625 50.769531 -40.203125 51.90625 -39.359375 C 53.039062 -38.222656 54.492188 -37.617188 56.265625 -37.546875 C 58.035156 -37.472656 59.984375 -37.578125 62.109375 -37.859375 C 63.671875 -38.003906 65.195312 -38.179688 66.6875 -38.390625 C 68.175781 -38.609375 69.703125 -38.785156 71.265625 -38.921875 C 72.816406 -39.210938 74.410156 -39.460938 76.046875 -39.671875 C 77.679688 -39.878906 79.273438 -40.054688 80.828125 -40.203125 C 84.941406 -40.484375 88.414062 -40.34375 91.25 -39.78125 C 96.78125 -38.5 100.398438 -35.660156 102.109375 -31.265625 Z M 102.109375 -31.265625 "/></g></g><g style="fill:#ffffff;fill-opacity:1;"><g transform="translate(789.965911, 495.250315)"><path style="stroke:none" d="M 50.625 -126.140625 C 51.613281 -111.109375 51.503906 -96.039062 50.296875 -80.9375 C 49.097656 -65.832031 47.648438 -50.976562 45.953125 -36.375 L 44.671875 -23.609375 C 44.242188 -20.628906 43.109375 -17.441406 41.265625 -14.046875 C 37.859375 -8.222656 33.320312 -5.3125 27.65625 -5.3125 C 22.40625 -5.3125 18.289062 -8.007812 15.3125 -13.40625 C 11.625 -20.070312 9.566406 -27.515625 9.140625 -35.734375 C 8.722656 -41.265625 8.515625 -46.863281 8.515625 -52.53125 C 8.515625 -58.207031 8.582031 -63.8125 8.71875 -69.34375 C 8.71875 -71.613281 8.71875 -73.914062 8.71875 -76.25 C 8.71875 -78.59375 8.71875 -80.972656 8.71875 -83.390625 L 8.71875 -85.71875 L 7.875 -85.71875 C 8.007812 -87.425781 8.113281 -89.164062 8.1875 -90.9375 C 8.257812 -92.707031 8.296875 -94.445312 8.296875 -96.15625 C 8.578125 -101.394531 8.859375 -106.671875 9.140625 -111.984375 C 9.429688 -117.304688 9.785156 -122.664062 10.203125 -128.0625 C 10.773438 -134.71875 11.984375 -140.882812 13.828125 -146.5625 C 15.242188 -150.394531 17.472656 -153.410156 20.515625 -155.609375 C 23.566406 -157.804688 27.007812 -158.832031 30.84375 -158.6875 C 39.207031 -158.257812 44.597656 -154.144531 47.015625 -146.34375 C 48.859375 -140.53125 50.0625 -133.796875 50.625 -126.140625 Z M 50.625 -126.140625 "/></g></g><g style="fill:#ffffff;fill-opacity:1;"><g transform="translate(849.312952, 495.250315)"><path style="stroke:none" d="M 102.75 -77 C 103.457031 -72.601562 102.566406 -68.703125 100.078125 -65.296875 C 97.597656 -61.898438 94.019531 -59.421875 89.34375 -57.859375 C 86.21875 -56.867188 83.023438 -56.195312 79.765625 -55.84375 C 76.503906 -55.488281 73.457031 -55.238281 70.625 -55.09375 C 67.789062 -54.945312 64.953125 -54.875 62.109375 -54.875 C 59.273438 -54.875 56.441406 -54.945312 53.609375 -55.09375 C 52.191406 -55.09375 50.804688 -55.09375 49.453125 -55.09375 C 48.109375 -55.09375 46.726562 -55.09375 45.3125 -55.09375 C 44.882812 -55.09375 44.242188 -54.878906 43.390625 -54.453125 C 42.960938 -54.171875 42.539062 -54.03125 42.125 -54.03125 L 40.84375 -53.390625 L 40.84375 -51.90625 C 40.84375 -50.914062 40.84375 -49.992188 40.84375 -49.140625 C 40.84375 -48.285156 40.84375 -47.363281 40.84375 -46.375 C 40.988281 -44.382812 41.0625 -42.289062 41.0625 -40.09375 C 41.0625 -37.894531 40.988281 -35.734375 40.84375 -33.609375 L 40.625 -31.484375 C 40.34375 -27.941406 40.023438 -24.394531 39.671875 -20.84375 C 39.316406 -17.300781 38.710938 -13.828125 37.859375 -10.421875 C 37.015625 -6.878906 35.207031 -4.007812 32.4375 -1.8125 C 29.675781 0.382812 26.734375 1.34375 23.609375 1.0625 C 17.085938 0.632812 13.117188 -3.832031 11.703125 -12.34375 C 10.566406 -19.851562 10 -26.660156 10 -32.765625 C 10.132812 -41.972656 10.304688 -51.148438 10.515625 -60.296875 C 10.734375 -69.453125 10.914062 -78.640625 11.0625 -87.859375 C 11.207031 -94.804688 11.347656 -101.785156 11.484375 -108.796875 C 11.628906 -115.816406 11.769531 -122.804688 11.90625 -129.765625 C 11.90625 -133.023438 11.195312 -136.070312 9.78125 -138.90625 C 7.65625 -143.300781 7.234375 -147.203125 8.515625 -150.609375 C 9.640625 -153.585938 12.046875 -155.785156 15.734375 -157.203125 C 23.816406 -160.597656 31.265625 -162.65625 38.078125 -163.375 C 42.191406 -163.65625 46.691406 -163.972656 51.578125 -164.328125 C 56.472656 -164.679688 61.613281 -164.859375 67 -164.859375 C 71.257812 -164.859375 75.234375 -164.71875 78.921875 -164.4375 C 85.441406 -164.007812 90.617188 -161.597656 94.453125 -157.203125 C 97.285156 -153.796875 98.5625 -150.109375 98.28125 -146.140625 C 97.851562 -141.742188 95.582031 -138.160156 91.46875 -135.390625 C 87.351562 -132.628906 82.109375 -131.390625 75.734375 -131.671875 C 71.898438 -131.671875 68 -131.671875 64.03125 -131.671875 C 60.0625 -131.671875 56.019531 -131.671875 51.90625 -131.671875 L 38.5 -131.671875 L 40.421875 -88.484375 L 42.96875 -88.703125 C 43.957031 -88.847656 44.945312 -88.953125 45.9375 -89.015625 C 46.9375 -89.085938 47.929688 -89.195312 48.921875 -89.34375 C 51.191406 -89.625 53.390625 -89.867188 55.515625 -90.078125 C 57.640625 -90.296875 59.769531 -90.476562 61.90625 -90.625 L 65.296875 -90.828125 C 68.421875 -90.972656 71.648438 -91.113281 74.984375 -91.25 C 78.316406 -91.394531 81.539062 -91.394531 84.65625 -91.25 C 89.476562 -90.96875 93.554688 -89.515625 96.890625 -86.890625 C 100.222656 -84.265625 102.175781 -80.96875 102.75 -77 Z M 102.75 -77 "/></g></g><g clip-rule="nonzero" clip-path="url(#b0da176bf5)"><g clip-rule="nonzero" clip-path="url(#80d5915eeb)"><path style=" stroke:none;fill-rule:nonzero;fill:#ffffff;fill-opacity:1;" d="M 806.597656 255.339844 L 837.402344 255.339844 L 837.402344 286.144531 L 806.597656 286.144531 Z M 806.597656 255.339844 "/></g></g><g clip-rule="nonzero" clip-path="url(#1efd541e54)"><g clip-rule="nonzero" clip-path="url(#58636198f4)"><path style=" stroke:none;fill-rule:nonzero;fill:#4487e1;fill-opacity:1;" d="M 817.167969 258.730469 L 843.628906 258.730469 L 843.628906 285.191406 L 817.167969 285.191406 Z M 817.167969 258.730469 "/></g></g><g clip-rule="nonzero" clip-path="url(#d2e0b7fb51)"><g clip-rule="nonzero" clip-path="url(#d760c3c6a6)"><g clip-rule="nonzero" clip-path="url(#18fa843e87)"><path style=" stroke:none;fill-rule:nonzero;fill:#ffffff;fill-opacity:1;" d="M 795.136719 291.210938 L 841.457031 277.097656 L 843.632812 284.230469 L 797.308594 298.339844 Z M 795.136719 291.210938 "/></g></g></g><g style="fill:#ffffff;fill-opacity:1;"><g transform="translate(539.061779, 548.342502)"><path style="stroke:none" d="M 2.15625 0 L 2.15625 -15.84375 L 11.75 -15.84375 L 11.5 -14.234375 L 7.0625 -14.96875 C 6.28125 -14.96875 5.414062 -14.832031 4.46875 -14.5625 L 4.46875 -8.75 L 9.78125 -8.75 L 9.78125 -7.84375 L 4.46875 -7.84375 L 4.46875 -0.859375 L 11.890625 -1.609375 L 11.65625 0 Z M 2.15625 0 "/></g></g><g style="fill:#ffffff;fill-opacity:1;"><g transform="translate(564.677577, 548.342502)"><path style="stroke:none" d="M 4.1875 -2.109375 C 4.1875 -1.628906 4.28125 -1.269531 4.46875 -1.03125 C 4.664062 -0.789062 4.984375 -0.671875 5.421875 -0.671875 C 5.867188 -0.671875 6.40625 -0.789062 7.03125 -1.03125 L 7.03125 -0.359375 C 6.101562 0.0664062 5.269531 0.28125 4.53125 0.28125 C 3.800781 0.28125 3.222656 0.078125 2.796875 -0.328125 C 2.378906 -0.734375 2.171875 -1.363281 2.171875 -2.21875 L 2.171875 -9.953125 L 0.234375 -10.328125 L 0.234375 -10.8125 L 2.171875 -10.8125 L 2.171875 -11.671875 L 4.1875 -13.140625 L 4.1875 -10.8125 L 7.03125 -10.8125 L 7.03125 -9.953125 L 4.1875 -9.953125 Z M 4.1875 -2.109375 "/></g></g><g style="fill:#ffffff;fill-opacity:1;"><g transform="translate(584.72102, 548.342502)"><path style="stroke:none" d="M 7.515625 -11.046875 C 8.242188 -11.046875 8.894531 -10.773438 9.46875 -10.234375 C 10.039062 -9.691406 10.328125 -8.757812 10.328125 -7.4375 L 10.328125 0 L 8.328125 0 L 8.328125 -7.203125 C 8.328125 -7.984375 8.1875 -8.566406 7.90625 -8.953125 C 7.625 -9.347656 7.085938 -9.546875 6.296875 -9.546875 C 5.515625 -9.546875 4.691406 -9.125 3.828125 -8.28125 L 3.828125 0 L 1.8125 0 L 1.8125 -16.34375 L 3.75 -16.34375 L 3.75 -9.28125 C 5.007812 -10.457031 6.265625 -11.046875 7.515625 -11.046875 Z M 7.515625 -11.046875 "/></g></g><g style="fill:#ffffff;fill-opacity:1;"><g transform="translate(608.925796, 548.342502)"><path style="stroke:none" d="M 1.796875 0 L 1.796875 -10.8125 L 3.78125 -10.8125 L 3.78125 0 Z M 1.5625 -14.15625 C 1.5625 -14.5 1.675781 -14.785156 1.90625 -15.015625 C 2.132812 -15.253906 2.421875 -15.375 2.765625 -15.375 C 3.109375 -15.375 3.398438 -15.253906 3.640625 -15.015625 C 3.890625 -14.785156 4.015625 -14.5 4.015625 -14.15625 C 4.015625 -13.820312 3.890625 -13.523438 3.640625 -13.265625 C 3.398438 -13.015625 3.109375 -12.890625 2.765625 -12.890625 C 2.429688 -12.890625 2.144531 -13.015625 1.90625 -13.265625 C 1.675781 -13.515625 1.5625 -13.8125 1.5625 -14.15625 Z M 1.5625 -14.15625 "/></g></g><g style="fill:#ffffff;fill-opacity:1;"><g transform="translate(626.673336, 548.342502)"><path style="stroke:none" d="M 5.453125 0.28125 C 4.066406 0.28125 2.914062 -0.191406 2 -1.140625 C 1.082031 -2.085938 0.625 -3.429688 0.625 -5.171875 C 0.625 -6.910156 1.113281 -8.332031 2.09375 -9.4375 C 3.070312 -10.539062 4.320312 -11.09375 5.84375 -11.09375 C 6.6875 -11.09375 7.632812 -10.890625 8.6875 -10.484375 L 8.4375 -8.90625 C 7.039062 -9.632812 5.835938 -10 4.828125 -10 C 4.003906 -9.582031 3.40625 -8.910156 3.03125 -7.984375 C 2.664062 -7.066406 2.484375 -6.160156 2.484375 -5.265625 C 2.484375 -4.046875 2.835938 -3.035156 3.546875 -2.234375 C 4.253906 -1.429688 5.101562 -1.03125 6.09375 -1.03125 C 7.082031 -1.03125 7.992188 -1.242188 8.828125 -1.671875 L 8.828125 -0.84375 C 7.679688 -0.09375 6.554688 0.28125 5.453125 0.28125 Z M 5.453125 0.28125 "/></g></g><g style="fill:#ffffff;fill-opacity:1;"><g transform="translate(648.558286, 548.342502)"><path style="stroke:none" d="M 4.046875 -10.09375 C 3.628906 -10.09375 3.285156 -9.9375 3.015625 -9.625 C 2.753906 -9.3125 2.625 -8.957031 2.625 -8.5625 C 2.625 -8.175781 2.8125 -7.800781 3.1875 -7.4375 C 3.5625 -7.082031 4.015625 -6.765625 4.546875 -6.484375 C 5.085938 -6.210938 5.617188 -5.925781 6.140625 -5.625 C 6.671875 -5.320312 7.125 -4.929688 7.5 -4.453125 C 7.875 -3.972656 8.0625 -3.4375 8.0625 -2.84375 C 8.0625 -1.945312 7.703125 -1.203125 6.984375 -0.609375 C 6.265625 -0.015625 5.285156 0.28125 4.046875 0.28125 C 2.816406 0.28125 1.691406 -0.00390625 0.671875 -0.578125 L 0.671875 -1.484375 C 1.753906 -0.941406 2.734375 -0.671875 3.609375 -0.671875 C 4.484375 -0.671875 5.117188 -0.84375 5.515625 -1.1875 C 5.921875 -1.539062 6.125 -1.941406 6.125 -2.390625 C 6.125 -2.847656 5.941406 -3.253906 5.578125 -3.609375 C 5.222656 -3.972656 4.785156 -4.289062 4.265625 -4.5625 C 3.753906 -4.832031 3.242188 -5.117188 2.734375 -5.421875 C 2.222656 -5.734375 1.785156 -6.125 1.421875 -6.59375 C 1.066406 -7.070312 0.890625 -7.648438 0.890625 -8.328125 C 0.890625 -9.015625 1.160156 -9.644531 1.703125 -10.21875 C 2.253906 -10.800781 3.101562 -11.09375 4.25 -11.09375 C 5.40625 -11.09375 6.507812 -10.890625 7.5625 -10.484375 L 7.3125 -8.90625 C 6.132812 -9.539062 5.046875 -9.9375 4.046875 -10.09375 Z M 4.046875 -10.09375 "/></g></g><g style="fill:#ffffff;fill-opacity:1;"><g transform="translate(669.630113, 548.342502)"><path style="stroke:none" d=""/></g></g><g style="fill:#ffffff;fill-opacity:1;"><g transform="translate(687.784227, 548.342502)"><path style="stroke:none" d="M 10.59375 -3.75 L 15.890625 -15.84375 L 18.328125 -15.84375 L 19.203125 0 L 16.765625 0 L 16.125 -13.609375 L 16.03125 -13.609375 L 10 0 L 9.671875 0 L 3.75 -13.0625 L 3.65625 -13.0625 L 3.015625 0 L 1.96875 0 L 2.84375 -15.84375 L 5.078125 -15.84375 Z M 10.59375 -3.75 "/></g></g><g style="fill:#ffffff;fill-opacity:1;"><g transform="translate(721.220436, 548.342502)"><path style="stroke:none" d="M 6.8125 -2.53125 L 6.8125 -5 C 5.664062 -4.914062 4.722656 -4.660156 3.984375 -4.234375 C 3.253906 -3.804688 2.890625 -3.34375 2.890625 -2.84375 C 2.890625 -2.351562 3.015625 -1.925781 3.265625 -1.5625 C 3.523438 -1.207031 3.859375 -0.957031 4.265625 -0.8125 C 4.785156 -0.90625 5.335938 -1.164062 5.921875 -1.59375 C 6.515625 -2.03125 6.8125 -2.34375 6.8125 -2.53125 Z M 8.78125 -3.1875 C 8.78125 -2.050781 9.191406 -1.1875 10.015625 -0.59375 L 8.78125 0.3125 L 6.84375 -1.4375 C 5.582031 -0.289062 4.414062 0.28125 3.34375 0.28125 C 2.644531 0.28125 2.046875 0.0625 1.546875 -0.375 C 1.046875 -0.820312 0.796875 -1.382812 0.796875 -2.0625 C 0.796875 -2.738281 1 -3.300781 1.40625 -3.75 C 1.8125 -4.195312 2.347656 -4.539062 3.015625 -4.78125 C 4.160156 -5.21875 5.425781 -5.488281 6.8125 -5.59375 L 6.8125 -7.84375 C 6.8125 -9.164062 6.046875 -9.828125 4.515625 -9.828125 C 3.640625 -9.828125 2.601562 -9.632812 1.40625 -9.25 L 1.203125 -9.859375 C 1.515625 -10.109375 2.066406 -10.375 2.859375 -10.65625 C 3.648438 -10.945312 4.40625 -11.09375 5.125 -11.09375 C 5.84375 -11.09375 6.441406 -11 6.921875 -10.8125 C 7.410156 -10.625 7.769531 -10.410156 8 -10.171875 C 8.226562 -9.929688 8.40625 -9.601562 8.53125 -9.1875 C 8.664062 -8.769531 8.738281 -8.441406 8.75 -8.203125 C 8.769531 -7.960938 8.78125 -7.644531 8.78125 -7.25 Z M 8.78125 -3.1875 "/></g></g><g style="fill:#ffffff;fill-opacity:1;"><g transform="translate(744.014178, 548.342502)"><path style="stroke:none" d="M 3.546875 0 L 1.53125 0 L 1.53125 -10.8125 L 2.921875 -10.8125 L 3.46875 -8.796875 C 3.789062 -9.359375 4.296875 -9.882812 4.984375 -10.375 C 5.679688 -10.875 6.394531 -11.179688 7.125 -11.296875 L 7.375 -9.640625 C 6.78125 -9.640625 6.113281 -9.457031 5.375 -9.09375 C 4.632812 -8.726562 4.023438 -8.320312 3.546875 -7.875 Z M 3.546875 0 "/></g></g><g style="fill:#ffffff;fill-opacity:1;"><g transform="translate(763.79455, 548.342502)"><path style="stroke:none" d="M 3.796875 0 L 1.796875 0 L 1.796875 -16.34375 L 3.796875 -16.34375 L 3.796875 -6.21875 L 9.328125 -10.8125 L 10.90625 -10.8125 L 5.28125 -6.546875 L 11.265625 0 L 8.875 0.3125 L 3.796875 -6 Z M 3.796875 0 "/></g></g><g style="fill:#ffffff;fill-opacity:1;"><g transform="translate(787.760166, 548.342502)"><path style="stroke:none" d="M 2.515625 -5.890625 C 2.515625 -4.160156 2.898438 -2.914062 3.671875 -2.15625 C 4.441406 -1.40625 5.378906 -1.03125 6.484375 -1.03125 C 7.597656 -1.03125 8.625 -1.242188 9.5625 -1.671875 L 9.5625 -0.84375 C 8.257812 -0.09375 7.007812 0.28125 5.8125 0.28125 C 4.269531 0.28125 3.019531 -0.1875 2.0625 -1.125 C 1.101562 -2.0625 0.625 -3.421875 0.625 -5.203125 C 0.625 -6.992188 1.148438 -8.421875 2.203125 -9.484375 C 3.265625 -10.554688 4.546875 -11.09375 6.046875 -11.09375 C 7.210938 -11.09375 8.1875 -10.632812 8.96875 -9.71875 C 9.75 -8.800781 10.140625 -7.523438 10.140625 -5.890625 Z M 4.828125 -9.96875 C 4.273438 -9.695312 3.796875 -9.265625 3.390625 -8.671875 C 2.992188 -8.078125 2.734375 -7.390625 2.609375 -6.609375 L 8.203125 -6.609375 C 8.160156 -7.273438 8.003906 -7.847656 7.734375 -8.328125 C 7.472656 -8.804688 7.160156 -9.15625 6.796875 -9.375 C 6.140625 -9.769531 5.484375 -9.96875 4.828125 -9.96875 Z M 4.828125 -9.96875 "/></g></g><g style="fill:#ffffff;fill-opacity:1;"><g transform="translate(811.151819, 548.342502)"><path style="stroke:none" d="M 4.1875 -2.109375 C 4.1875 -1.628906 4.28125 -1.269531 4.46875 -1.03125 C 4.664062 -0.789062 4.984375 -0.671875 5.421875 -0.671875 C 5.867188 -0.671875 6.40625 -0.789062 7.03125 -1.03125 L 7.03125 -0.359375 C 6.101562 0.0664062 5.269531 0.28125 4.53125 0.28125 C 3.800781 0.28125 3.222656 0.078125 2.796875 -0.328125 C 2.378906 -0.734375 2.171875 -1.363281 2.171875 -2.21875 L 2.171875 -9.953125 L 0.234375 -10.328125 L 0.234375 -10.8125 L 2.171875 -10.8125 L 2.171875 -11.671875 L 4.1875 -13.140625 L 4.1875 -10.8125 L 7.03125 -10.8125 L 7.03125 -9.953125 L 4.1875 -9.953125 Z M 4.1875 -2.109375 "/></g></g><g style="fill:#ffffff;fill-opacity:1;"><g transform="translate(831.195262, 548.342502)"><path style="stroke:none" d="M 3.828125 -9.28125 C 4.492188 -9.914062 5.078125 -10.375 5.578125 -10.65625 C 6.085938 -10.945312 6.609375 -11.09375 7.140625 -11.09375 C 7.671875 -11.09375 8.144531 -11.003906 8.5625 -10.828125 C 8.988281 -10.660156 9.425781 -10.378906 9.875 -9.984375 C 10.320312 -9.597656 10.6875 -8.992188 10.96875 -8.171875 C 11.25 -7.347656 11.390625 -6.445312 11.390625 -5.46875 C 11.390625 -4.488281 11.226562 -3.570312 10.90625 -2.71875 C 10.59375 -1.875 10.09375 -1.140625 9.40625 -0.515625 C 8.71875 0.0976562 7.890625 0.40625 6.921875 0.40625 C 5.960938 0.40625 4.929688 0.03125 3.828125 -0.71875 L 3.828125 5.078125 L 1.796875 5.078125 L 1.796875 -7.578125 C 1.796875 -8.679688 1.378906 -9.550781 0.546875 -10.1875 L 1.796875 -11.09375 Z M 3.828125 -7.828125 L 3.828125 -1.40625 C 6.015625 -0.375 7.5625 -0.539062 8.46875 -1.90625 C 8.957031 -2.6875 9.203125 -3.71875 9.203125 -5 C 9.203125 -6.289062 9 -7.394531 8.59375 -8.3125 C 8.1875 -9.226562 7.679688 -9.78125 7.078125 -9.96875 C 6.523438 -9.90625 5.976562 -9.707031 5.4375 -9.375 C 4.90625 -9.039062 4.503906 -8.722656 4.234375 -8.421875 C 3.960938 -8.128906 3.828125 -7.929688 3.828125 -7.828125 Z M 3.828125 -7.828125 "/></g></g><g style="fill:#ffffff;fill-opacity:1;"><g transform="translate(855.328305, 548.342502)"><path style="stroke:none" d="M 3.796875 -16.34375 L 3.796875 0 L 1.796875 0 L 1.796875 -16.34375 Z M 3.796875 -16.34375 "/></g></g><g style="fill:#ffffff;fill-opacity:1;"><g transform="translate(873.099756, 548.342502)"><path style="stroke:none" d="M 6.8125 -2.53125 L 6.8125 -5 C 5.664062 -4.914062 4.722656 -4.660156 3.984375 -4.234375 C 3.253906 -3.804688 2.890625 -3.34375 2.890625 -2.84375 C 2.890625 -2.351562 3.015625 -1.925781 3.265625 -1.5625 C 3.523438 -1.207031 3.859375 -0.957031 4.265625 -0.8125 C 4.785156 -0.90625 5.335938 -1.164062 5.921875 -1.59375 C 6.515625 -2.03125 6.8125 -2.34375 6.8125 -2.53125 Z M 8.78125 -3.1875 C 8.78125 -2.050781 9.191406 -1.1875 10.015625 -0.59375 L 8.78125 0.3125 L 6.84375 -1.4375 C 5.582031 -0.289062 4.414062 0.28125 3.34375 0.28125 C 2.644531 0.28125 2.046875 0.0625 1.546875 -0.375 C 1.046875 -0.820312 0.796875 -1.382812 0.796875 -2.0625 C 0.796875 -2.738281 1 -3.300781 1.40625 -3.75 C 1.8125 -4.195312 2.347656 -4.539062 3.015625 -4.78125 C 4.160156 -5.21875 5.425781 -5.488281 6.8125 -5.59375 L 6.8125 -7.84375 C 6.8125 -9.164062 6.046875 -9.828125 4.515625 -9.828125 C 3.640625 -9.828125 2.601562 -9.632812 1.40625 -9.25 L 1.203125 -9.859375 C 1.515625 -10.109375 2.066406 -10.375 2.859375 -10.65625 C 3.648438 -10.945312 4.40625 -11.09375 5.125 -11.09375 C 5.84375 -11.09375 6.441406 -11 6.921875 -10.8125 C 7.410156 -10.625 7.769531 -10.410156 8 -10.171875 C 8.226562 -9.929688 8.40625 -9.601562 8.53125 -9.1875 C 8.664062 -8.769531 8.738281 -8.441406 8.75 -8.203125 C 8.769531 -7.960938 8.78125 -7.644531 8.78125 -7.25 Z M 8.78125 -3.1875 "/></g></g><g style="fill:#ffffff;fill-opacity:1;"><g transform="translate(895.89351, 548.342502)"><path style="stroke:none" d="M 5.453125 0.28125 C 4.066406 0.28125 2.914062 -0.191406 2 -1.140625 C 1.082031 -2.085938 0.625 -3.429688 0.625 -5.171875 C 0.625 -6.910156 1.113281 -8.332031 2.09375 -9.4375 C 3.070312 -10.539062 4.320312 -11.09375 5.84375 -11.09375 C 6.6875 -11.09375 7.632812 -10.890625 8.6875 -10.484375 L 8.4375 -8.90625 C 7.039062 -9.632812 5.835938 -10 4.828125 -10 C 4.003906 -9.582031 3.40625 -8.910156 3.03125 -7.984375 C 2.664062 -7.066406 2.484375 -6.160156 2.484375 -5.265625 C 2.484375 -4.046875 2.835938 -3.035156 3.546875 -2.234375 C 4.253906 -1.429688 5.101562 -1.03125 6.09375 -1.03125 C 7.082031 -1.03125 7.992188 -1.242188 8.828125 -1.671875 L 8.828125 -0.84375 C 7.679688 -0.09375 6.554688 0.28125 5.453125 0.28125 Z M 5.453125 0.28125 "/></g></g><g style="fill:#ffffff;fill-opacity:1;"><g transform="translate(917.778448, 548.342502)"><path style="stroke:none" d="M 2.515625 -5.890625 C 2.515625 -4.160156 2.898438 -2.914062 3.671875 -2.15625 C 4.441406 -1.40625 5.378906 -1.03125 6.484375 -1.03125 C 7.597656 -1.03125 8.625 -1.242188 9.5625 -1.671875 L 9.5625 -0.84375 C 8.257812 -0.09375 7.007812 0.28125 5.8125 0.28125 C 4.269531 0.28125 3.019531 -0.1875 2.0625 -1.125 C 1.101562 -2.0625 0.625 -3.421875 0.625 -5.203125 C 0.625 -6.992188 1.148438 -8.421875 2.203125 -9.484375 C 3.265625 -10.554688 4.546875 -11.09375 6.046875 -11.09375 C 7.210938 -11.09375 8.1875 -10.632812 8.96875 -9.71875 C 9.75 -8.800781 10.140625 -7.523438 10.140625 -5.890625 Z M 4.828125 -9.96875 C 4.273438 -9.695312 3.796875 -9.265625 3.390625 -8.671875 C 2.992188 -8.078125 2.734375 -7.390625 2.609375 -6.609375 L 8.203125 -6.609375 C 8.160156 -7.273438 8.003906 -7.847656 7.734375 -8.328125 C 7.472656 -8.804688 7.160156 -9.15625 6.796875 -9.375 C 6.140625 -9.769531 5.484375 -9.96875 4.828125 -9.96875 Z M 4.828125 -9.96875 "/></g></g><g clip-rule="nonzero" clip-path="url(#400b4e2e7b)"><g clip-rule="nonzero" clip-path="url(#e93edf1410)"><path style=" stroke:none;fill-rule:nonzero;fill:#ffffff;fill-opacity:1;" d="M 796.683594 355.230469 L 811.4375 355.230469 L 811.4375 476.824219 L 796.683594 476.824219 Z M 796.683594 355.230469 "/></g></g><g clip-rule="nonzero" clip-path="url(#8b71058feb)"><g clip-rule="nonzero" clip-path="url(#dd2c579368)"><path style=" stroke:none;fill-rule:nonzero;fill:#ffffff;fill-opacity:1;" d="M 797.3125 350.960938 L 812.066406 350.960938 L 812.066406 472.554688 L 797.3125 472.554688 Z M 797.3125 350.960938 "/></g></g><g clip-rule="nonzero" clip-path="url(#b6149c6fb7)"><g clip-rule="nonzero" clip-path="url(#1106fc0095)"><path style=" stroke:none;fill-rule:nonzero;fill:#ffffff;fill-opacity:1;" d="M 798.210938 347.21875 L 812.964844 347.21875 L 812.964844 468.8125 L 798.210938 468.8125 Z M 798.210938 347.21875 "/></g></g></g></svg>